solid OBJECT
  facet normal 0 1 -0
    outer loop
      vertex 16500 1961 7981.5
      vertex 16500 1961 9650
      vertex 17800 1961 9650
    endloop
  endfacet
  facet normal 0 1 -0
    outer loop
      vertex 16500 1961 7981.5
      vertex 17800 1961 9650
      vertex 17800 1961 7981.5
    endloop
  endfacet
  facet normal 0 1 -0
    outer loop
      vertex 16500 1961 6313
      vertex 16500 1961 7981.5
      vertex 17800 1961 7981.5
    endloop
  endfacet
  facet normal 0 1 -0
    outer loop
      vertex 16500 1961 6313
      vertex 17800 1961 7981.5
      vertex 17800 1961 6313
    endloop
  endfacet
  facet normal 0 1 -0
    outer loop
      vertex 17800 1266 7981.5
      vertex 17800 1266 9650
      vertex 18600 1266 9650
    endloop
  endfacet
  facet normal 0 1 -0
    outer loop
      vertex 17800 1266 7981.5
      vertex 18600 1266 9650
      vertex 18600 1266 7981.5
    endloop
  endfacet
  facet normal 0 1 -0
    outer loop
      vertex 17800 1266 6313
      vertex 17800 1266 7981.5
      vertex 18600 1266 7981.5
    endloop
  endfacet
  facet normal 0 1 -0
    outer loop
      vertex 17800 1266 6313
      vertex 18600 1266 7981.5
      vertex 18600 1266 6313
    endloop
  endfacet
  facet normal 1 0 -0
    outer loop
      vertex 17800 1266 7981.5
      vertex 17800 1961 7981.5
      vertex 17800 1961 9650
    endloop
  endfacet
  facet normal 1 -0 0
    outer loop
      vertex 17800 1266 7981.5
      vertex 17800 1961 9650
      vertex 17800 1266 9650
    endloop
  endfacet
  facet normal 1 0 -0
    outer loop
      vertex 17800 1266 6313
      vertex 17800 1961 6313
      vertex 17800 1961 7981.5
    endloop
  endfacet
  facet normal 1 -0 0
    outer loop
      vertex 17800 1266 6313
      vertex 17800 1961 7981.5
      vertex 17800 1266 7981.5
    endloop
  endfacet
  facet normal -1 -0 0
    outer loop
      vertex 16500 -1264 7981.5
      vertex 16500 -1264 9650
      vertex 16500 348.5 9650
    endloop
  endfacet
  facet normal -1 0 0
    outer loop
      vertex 16500 -1264 7981.5
      vertex 16500 348.5 6313
      vertex 16500 -1264 6313
    endloop
  endfacet
  facet normal -1 -0 -0
    outer loop
      vertex 16500 348.5 6313
      vertex 16500 -1264 7981.5
      vertex 16500 348.5 9650
    endloop
  endfacet
  facet normal -1 0 0
    outer loop
      vertex 16500 348.5 9650
      vertex 16500 1961 7981.5
      vertex 16500 348.5 6313
    endloop
  endfacet
  facet normal -1 0 -0
    outer loop
      vertex 16500 1961 7981.5
      vertex 16500 1961 6313
      vertex 16500 348.5 6313
    endloop
  endfacet
  facet normal -1 0 -0
    outer loop
      vertex 16500 1961 9650
      vertex 16500 1961 7981.5
      vertex 16500 348.5 9650
    endloop
  endfacet
  facet normal -0 0 1
    outer loop
      vertex 16500 348.5 9650
      vertex 17800 1266 9650
      vertex 16500 1961 9650
    endloop
  endfacet
  facet normal 0 -0 1
    outer loop
      vertex 17800 1961 9650
      vertex 16500 1961 9650
      vertex 17800 1266 9650
    endloop
  endfacet
  facet normal 0 0 1
    outer loop
      vertex 17800 1266 9650
      vertex 18600 1 9650
      vertex 18600 1266 9650
    endloop
  endfacet
  facet normal 0 -0 1
    outer loop
      vertex 18600 1 9650
      vertex 16500 348.5 9650
      vertex 16500 -1264 9650
    endloop
  endfacet
  facet normal 0 -0 1
    outer loop
      vertex 18600 1 9650
      vertex 16500 -1264 9650
      vertex 18600 -1264 9650
    endloop
  endfacet
  facet normal -0 -0 1
    outer loop
      vertex 17800 1266 9650
      vertex 16500 348.5 9650
      vertex 18600 1 9650
    endloop
  endfacet
  facet normal 1 0 0
    outer loop
      vertex 18600 1 9650
      vertex 18600 1 6313
      vertex 18600 1266 7981.5
    endloop
  endfacet
  facet normal 1 0 0
    outer loop
      vertex 18600 1266 7981.5
      vertex 18600 1 6313
      vertex 18600 1266 6313
    endloop
  endfacet
  facet normal 1 0 0
    outer loop
      vertex 18600 1 9650
      vertex 18600 1266 7981.5
      vertex 18600 1266 9650
    endloop
  endfacet
  facet normal 1 -0 0
    outer loop
      vertex 18600 -1264 7981.5
      vertex 18600 1 9650
      vertex 18600 -1264 9650
    endloop
  endfacet
  facet normal 1 0 0
    outer loop
      vertex 18600 -1264 7981.5
      vertex 18600 -1264 6313
      vertex 18600 1 6313
    endloop
  endfacet
  facet normal 1 0 -0
    outer loop
      vertex 18600 1 9650
      vertex 18600 -1264 7981.5
      vertex 18600 1 6313
    endloop
  endfacet
  facet normal -0 0 -1
    outer loop
      vertex 16500 348.5 6313
      vertex 16500 1961 6313
      vertex 17800 1266 6313
    endloop
  endfacet
  facet normal 0 0 -1
    outer loop
      vertex 17800 1961 6313
      vertex 17800 1266 6313
      vertex 16500 1961 6313
    endloop
  endfacet
  facet normal -0 -0 -1
    outer loop
      vertex 17800 1266 6313
      vertex 18600 1266 6313
      vertex 18600 1 6313
    endloop
  endfacet
  facet normal -0 0 -1
    outer loop
      vertex 18600 1 6313
      vertex 18600 -1264 6313
      vertex 16500 -1264 6313
    endloop
  endfacet
  facet normal 0 -0 -1
    outer loop
      vertex 18600 1 6313
      vertex 16500 -1264 6313
      vertex 16500 348.5 6313
    endloop
  endfacet
  facet normal 0 0 -1
    outer loop
      vertex 17800 1266 6313
      vertex 18600 1 6313
      vertex 16500 348.5 6313
    endloop
  endfacet
  facet normal -0 -1 -0
    outer loop
      vertex 18600 -1264 7981.5
      vertex 18600 -1264 9650
      vertex 16500 -1264 9650
    endloop
  endfacet
  facet normal 0 -1 0
    outer loop
      vertex 18600 -1264 7981.5
      vertex 16500 -1264 9650
      vertex 16500 -1264 7981.5
    endloop
  endfacet
  facet normal -0 -1 -0
    outer loop
      vertex 18600 -1264 6313
      vertex 18600 -1264 7981.5
      vertex 16500 -1264 7981.5
    endloop
  endfacet
  facet normal 0 -1 0
    outer loop
      vertex 18600 -1264 6313
      vertex 16500 -1264 7981.5
      vertex 16500 -1264 6313
    endloop
  endfacet
endsolid OBJECT
