solid OBJECT
  facet normal 0 0 -1
    outer loop
      vertex 8100 4590 6313
      vertex 8800 3930 6313
      vertex 8100 3930 6313
    endloop
  endfacet
  facet normal 0 -0 -1
    outer loop
      vertex 8100 4590 6313
      vertex 8100 5250 6313
      vertex 8800 5250 6313
    endloop
  endfacet
  facet normal 0 -0 -1
    outer loop
      vertex 9500 4590 6313
      vertex 8800 3930 6313
      vertex 8100 4590 6313
    endloop
  endfacet
  facet normal -0 0 -1
    outer loop
      vertex 8100 4590 6313
      vertex 8800 5250 6313
      vertex 9500 4590 6313
    endloop
  endfacet
  facet normal -0 -0 -1
    outer loop
      vertex 9500 4590 6313
      vertex 8800 5250 6313
      vertex 9500 5250 6313
    endloop
  endfacet
  facet normal -0 -0 -1
    outer loop
      vertex 9500 3930 6313
      vertex 8800 3930 6313
      vertex 9500 4590 6313
    endloop
  endfacet
  facet normal -0 -0 1
    outer loop
      vertex 8100 4590 9643
      vertex 8100 3930 9643
      vertex 8800 3930 9643
    endloop
  endfacet
  facet normal -0 0 1
    outer loop
      vertex 8100 4590 9643
      vertex 8800 5250 9643
      vertex 8100 5250 9643
    endloop
  endfacet
  facet normal 0 -0 1
    outer loop
      vertex 9500 4590 9643
      vertex 8100 4590 9643
      vertex 8800 3930 9643
    endloop
  endfacet
  facet normal -0 0 1
    outer loop
      vertex 8100 4590 9643
      vertex 9500 4590 9643
      vertex 8800 5250 9643
    endloop
  endfacet
  facet normal 0 0 1
    outer loop
      vertex 9500 4590 9643
      vertex 9500 5250 9643
      vertex 8800 5250 9643
    endloop
  endfacet
  facet normal 0 0 1
    outer loop
      vertex 9500 3930 9643
      vertex 9500 4590 9643
      vertex 8800 3930 9643
    endloop
  endfacet
  facet normal 0 1 -0
    outer loop
      vertex 8800 5250 6313
      vertex 9500 5250 7978
      vertex 9500 5250 6313
    endloop
  endfacet
  facet normal -0 1 -0
    outer loop
      vertex 8800 5250 6313
      vertex 8100 5250 6313
      vertex 8100 5250 7978
    endloop
  endfacet
  facet normal -0 1 -0
    outer loop
      vertex 8800 5250 9643
      vertex 9500 5250 7978
      vertex 8800 5250 6313
    endloop
  endfacet
  facet normal 0 1 0
    outer loop
      vertex 8800 5250 6313
      vertex 8100 5250 7978
      vertex 8800 5250 9643
    endloop
  endfacet
  facet normal -0 1 0
    outer loop
      vertex 8800 5250 9643
      vertex 8100 5250 7978
      vertex 8100 5250 9643
    endloop
  endfacet
  facet normal -0 1 0
    outer loop
      vertex 9500 5250 9643
      vertex 9500 5250 7978
      vertex 8800 5250 9643
    endloop
  endfacet
  facet normal -1 0 0
    outer loop
      vertex 8100 4590 6313
      vertex 8100 3930 6313
      vertex 8100 3930 7978
    endloop
  endfacet
  facet normal -1 -0 0
    outer loop
      vertex 8100 4590 6313
      vertex 8100 5250 7978
      vertex 8100 5250 6313
    endloop
  endfacet
  facet normal -1 0 -0
    outer loop
      vertex 8100 5250 7978
      vertex 8100 4590 6313
      vertex 8100 3930 7978
    endloop
  endfacet
  facet normal -1 -0 0
    outer loop
      vertex 8100 3930 7978
      vertex 8100 4590 9643
      vertex 8100 5250 7978
    endloop
  endfacet
  facet normal -1 -0 -0
    outer loop
      vertex 8100 4590 9643
      vertex 8100 5250 9643
      vertex 8100 5250 7978
    endloop
  endfacet
  facet normal -1 -0 0
    outer loop
      vertex 8100 3930 9643
      vertex 8100 4590 9643
      vertex 8100 3930 7978
    endloop
  endfacet
  facet normal 0 -1 0
    outer loop
      vertex 8800 3930 6313
      vertex 8100 3930 7978
      vertex 8100 3930 6313
    endloop
  endfacet
  facet normal -0 -1 0
    outer loop
      vertex 8800 3930 6313
      vertex 9500 3930 6313
      vertex 9500 3930 7978
    endloop
  endfacet
  facet normal 0 -1 -0
    outer loop
      vertex 8800 3930 9643
      vertex 8100 3930 9643
      vertex 8100 3930 7978
    endloop
  endfacet
  facet normal -0 -1 0
    outer loop
      vertex 8800 3930 9643
      vertex 8100 3930 7978
      vertex 8800 3930 6313
    endloop
  endfacet
  facet normal 0 -1 -0
    outer loop
      vertex 8800 3930 6313
      vertex 9500 3930 7978
      vertex 8800 3930 9643
    endloop
  endfacet
  facet normal -0 -1 -0
    outer loop
      vertex 8800 3930 9643
      vertex 9500 3930 7978
      vertex 9500 3930 9643
    endloop
  endfacet
  facet normal 1 0 -0
    outer loop
      vertex 9500 4590 6313
      vertex 9500 5250 6313
      vertex 9500 5250 7978
    endloop
  endfacet
  facet normal 1 -0 -0
    outer loop
      vertex 9500 4590 6313
      vertex 9500 3930 7978
      vertex 9500 3930 6313
    endloop
  endfacet
  facet normal 1 0 0
    outer loop
      vertex 9500 4590 9643
      vertex 9500 4590 6313
      vertex 9500 5250 7978
    endloop
  endfacet
  facet normal 1 -0 -0
    outer loop
      vertex 9500 4590 6313
      vertex 9500 4590 9643
      vertex 9500 3930 7978
    endloop
  endfacet
  facet normal 1 -0 0
    outer loop
      vertex 9500 4590 9643
      vertex 9500 3930 9643
      vertex 9500 3930 7978
    endloop
  endfacet
  facet normal 1 -0 0
    outer loop
      vertex 9500 5250 9643
      vertex 9500 4590 9643
      vertex 9500 5250 7978
    endloop
  endfacet
endsolid OBJECT
