solid OBJECT
  facet normal -0 1 0
    outer loop
      vertex 14750 5850 9650
      vertex 14750 5850 11150
      vertex 18600 5850 11150
    endloop
  endfacet
  facet normal 0 1 -0
    outer loop
      vertex 14750 5850 9650
      vertex 18600 5850 11150
      vertex 18600 5850 9650
    endloop
  endfacet
  facet normal -0 1 0
    outer loop
      vertex 10900 5850 9650
      vertex 10900 5850 11150
      vertex 14750 5850 11150
    endloop
  endfacet
  facet normal 0 1 -0
    outer loop
      vertex 10900 5850 9650
      vertex 14750 5850 11150
      vertex 14750 5850 9650
    endloop
  endfacet
  facet normal -0 -1 -0
    outer loop
      vertex 14750 -5850 9650
      vertex 14750 -5850 11150
      vertex 10900 -5850 11150
    endloop
  endfacet
  facet normal 0 -1 0
    outer loop
      vertex 14750 -5850 9650
      vertex 10900 -5850 11150
      vertex 10900 -5850 9650
    endloop
  endfacet
  facet normal -0 -1 -0
    outer loop
      vertex 18600 -5850 9650
      vertex 18600 -5850 11150
      vertex 14750 -5850 11150
    endloop
  endfacet
  facet normal 0 -1 0
    outer loop
      vertex 18600 -5850 9650
      vertex 14750 -5850 11150
      vertex 14750 -5850 9650
    endloop
  endfacet
  facet normal -1 -0 -0
    outer loop
      vertex 10900 -1950 9650
      vertex 10900 -5850 9650
      vertex 10900 -5850 11150
    endloop
  endfacet
  facet normal -1 -0 -0
    outer loop
      vertex 10900 -1950 9650
      vertex 10900 -5850 11150
      vertex 10900 -1950 11150
    endloop
  endfacet
  facet normal -1 -0 -0
    outer loop
      vertex 10900 5850 9650
      vertex 10900 1950 9650
      vertex 10900 1950 11150
    endloop
  endfacet
  facet normal -1 -0 -0
    outer loop
      vertex 10900 5850 9650
      vertex 10900 1950 11150
      vertex 10900 5850 11150
    endloop
  endfacet
  facet normal -1 -0 -0
    outer loop
      vertex 10900 1950 9650
      vertex 10900 -1950 9650
      vertex 10900 -1950 11150
    endloop
  endfacet
  facet normal -1 -0 -0
    outer loop
      vertex 10900 1950 9650
      vertex 10900 -1950 11150
      vertex 10900 1950 11150
    endloop
  endfacet
  facet normal 1 0 0
    outer loop
      vertex 18600 -1950 9650
      vertex 18600 -1950 11150
      vertex 18600 -5850 11150
    endloop
  endfacet
  facet normal 1 0 -0
    outer loop
      vertex 18600 -1950 9650
      vertex 18600 -5850 11150
      vertex 18600 -5850 9650
    endloop
  endfacet
  facet normal 1 0 0
    outer loop
      vertex 18600 5850 9650
      vertex 18600 5850 11150
      vertex 18600 1950 11150
    endloop
  endfacet
  facet normal 1 0 -0
    outer loop
      vertex 18600 5850 9650
      vertex 18600 1950 11150
      vertex 18600 1950 9650
    endloop
  endfacet
  facet normal 1 0 0
    outer loop
      vertex 18600 1950 9650
      vertex 18600 1950 11150
      vertex 18600 -1950 11150
    endloop
  endfacet
  facet normal 1 0 -0
    outer loop
      vertex 18600 1950 9650
      vertex 18600 -1950 11150
      vertex 18600 -1950 9650
    endloop
  endfacet
  facet normal 0 0 -1
    outer loop
      vertex 14750 -5850 9650
      vertex 10900 -5850 9650
      vertex 10900 -1950 9650
    endloop
  endfacet
  facet normal 0 0 -1
    outer loop
      vertex 18600 -5850 9650
      vertex 14750 -5850 9650
      vertex 18600 -1950 9650
    endloop
  endfacet
  facet normal -0 0 -1
    outer loop
      vertex 14750 -5850 9650
      vertex 14750 5850 9650
      vertex 18600 1950 9650
    endloop
  endfacet
  facet normal -0 0 -1
    outer loop
      vertex 14750 -5850 9650
      vertex 18600 1950 9650
      vertex 18600 -1950 9650
    endloop
  endfacet
  facet normal 0 -0 -1
    outer loop
      vertex 14750 5850 9650
      vertex 14750 -5850 9650
      vertex 10900 -1950 9650
    endloop
  endfacet
  facet normal 0 -0 -1
    outer loop
      vertex 14750 5850 9650
      vertex 10900 -1950 9650
      vertex 10900 1950 9650
    endloop
  endfacet
  facet normal 0 -0 -1
    outer loop
      vertex 14750 5850 9650
      vertex 10900 1950 9650
      vertex 10900 5850 9650
    endloop
  endfacet
  facet normal 0 -0 -1
    outer loop
      vertex 18600 5850 9650
      vertex 18600 1950 9650
      vertex 14750 5850 9650
    endloop
  endfacet
  facet normal -0 -0 1
    outer loop
      vertex 14750 -5850 11150
      vertex 10900 -1950 11150
      vertex 10900 -5850 11150
    endloop
  endfacet
  facet normal -0 -0 1
    outer loop
      vertex 18600 -5850 11150
      vertex 18600 -1950 11150
      vertex 14750 -5850 11150
    endloop
  endfacet
  facet normal -0 0 1
    outer loop
      vertex 14750 -5850 11150
      vertex 18600 -1950 11150
      vertex 18600 1950 11150
    endloop
  endfacet
  facet normal -0 0 1
    outer loop
      vertex 14750 -5850 11150
      vertex 18600 1950 11150
      vertex 14750 5850 11150
    endloop
  endfacet
  facet normal 0 0 1
    outer loop
      vertex 10900 1950 11150
      vertex 10900 -1950 11150
      vertex 14750 -5850 11150
    endloop
  endfacet
  facet normal -0 0 1
    outer loop
      vertex 14750 5850 11150
      vertex 10900 5850 11150
      vertex 10900 1950 11150
    endloop
  endfacet
  facet normal -0 0 1
    outer loop
      vertex 18600 5850 11150
      vertex 14750 5850 11150
      vertex 18600 1950 11150
    endloop
  endfacet
  facet normal 0 -0 1
    outer loop
      vertex 10900 1950 11150
      vertex 14750 -5850 11150
      vertex 14750 5850 11150
    endloop
  endfacet
endsolid OBJECT
