solid OBJECT
  facet normal 1 -0 0
    outer loop
      vertex 19913 -6600 3710
      vertex 19913 6600 3710
      vertex 19913 6600 9350
    endloop
  endfacet
  facet normal 1 -0 0
    outer loop
      vertex 19913 -6600 3710
      vertex 19913 6600 9350
      vertex 19913 -6600 9350
    endloop
  endfacet
  facet normal -0 1 -0
    outer loop
      vertex 19913 6600 3710
      vertex 18600 6600 3710
      vertex 18600 6600 9350
    endloop
  endfacet
  facet normal 0 1 0
    outer loop
      vertex 19913 6600 3710
      vertex 18600 6600 9350
      vertex 19913 6600 9350
    endloop
  endfacet
  facet normal -1 -0 -0
    outer loop
      vertex 18600 6600 3710
      vertex 18600 -6600 3710
      vertex 18600 -6600 9350
    endloop
  endfacet
  facet normal -1 -0 -0
    outer loop
      vertex 18600 6600 3710
      vertex 18600 -6600 9350
      vertex 18600 6600 9350
    endloop
  endfacet
  facet normal -0 -1 0
    outer loop
      vertex 18600 -6600 3710
      vertex 19913 -6600 3710
      vertex 19913 -6600 9350
    endloop
  endfacet
  facet normal 0 -1 0
    outer loop
      vertex 18600 -6600 3710
      vertex 19913 -6600 9350
      vertex 18600 -6600 9350
    endloop
  endfacet
  facet normal 0 -0 -1
    outer loop
      vertex 19913 6600 3710
      vertex 19913 -6600 3710
      vertex 18600 -6600 3710
    endloop
  endfacet
  facet normal -0 0 -1
    outer loop
      vertex 18600 -6600 3710
      vertex 18600 6600 3710
      vertex 19913 6600 3710
    endloop
  endfacet
  facet normal 0 0 1
    outer loop
      vertex 19913 6600 9350
      vertex 18600 -6600 9350
      vertex 19913 -6600 9350
    endloop
  endfacet
  facet normal -0 0 1
    outer loop
      vertex 18600 -6600 9350
      vertex 19913 6600 9350
      vertex 18600 6600 9350
    endloop
  endfacet
endsolid OBJECT
